Pedal_Stiffness1_states
version=1
nRows=51
nColumns=9
inDegrees=yes

# SIMM Motion File Header:
name Pedal_Stiffness1_states
datacolumns 9
datarows 51
otherdata 1
range 2.82883802 3.53000870
endheader
time	B_Pedal_tilt	G_Pedal_tilt	Tester_Sld-B_Pedal	Tester_Sld-G_Pedal	B_Pedal_tilt_u	G_Pedal_tilt_u	Tester_Sld-B_Pedal_u	Tester_Sld-G_Pedal_u
      2.82883802	     19.14586429	     22.07715149	      0.07157108	      0.08003293	     -7.00009978	     -0.24876764	     -0.02532157	     -0.00608611
      2.84346982	     19.04058943	     22.07351275	      0.07119183	      0.07994393	     -7.38453347	     -0.24862008	     -0.02646474	     -0.00607493
      2.85810163	     18.92993495	     22.06987564	      0.07079698	      0.07985528	     -7.73471863	     -0.24853240	     -0.02751371	     -0.00604030
      2.87282092	     18.81371122	     22.06621864	      0.07038404	      0.07976661	     -8.05156779	     -0.24836270	     -0.02858297	     -0.00600778
      2.88754021	     18.69306292	     22.06256425	      0.06995724	      0.07967834	     -8.33615149	     -0.24820261	     -0.02938460	     -0.00598595
      2.90225951	     18.56847398	     22.05891142	      0.06951878	      0.07959039	     -8.58702226	     -0.24800130	     -0.03019326	     -0.00598189
      2.91697880	     18.44042320	     22.05526361	      0.06906892	      0.07950167	     -8.80679657	     -0.24778180	     -0.03094237	     -0.00607154
      2.93169809	     18.30934852	     22.05161541	      0.06860901	      0.07941150	     -8.99868135	     -0.24799439	     -0.03151349	     -0.00619624
      2.94641738	     18.17564633	     22.04795830	      0.06814167	      0.07931967	     -9.16381460	     -0.24907195	     -0.03198927	     -0.00625214
      2.95834160	     18.06567656	     22.04498179	      0.06775747	      0.07924550	     -9.27835739	     -0.25007331	     -0.03245084	     -0.00618054
      2.97026581	     17.95442532	     22.04199799	      0.06736849	      0.07917220	     -9.37914294	     -0.25025518	     -0.03276765	     -0.00612126
      2.98706660	     17.79580876	     22.03779675	      0.06681511	      0.07906943	     -9.49861934	     -0.24943270	     -0.03309664	     -0.00616720
      3.00386740	     17.63540076	     22.03362041	      0.06625560	      0.07896248	     -9.59267749	     -0.24810217	     -0.03353210	     -0.00658995
      3.01708690	     17.50817557	     22.03033092	      0.06581118	      0.07887418	     -9.65355179	     -0.24986346	     -0.03368416	     -0.00671386
      3.03030640	     17.38022311	     22.02701300	      0.06536501	      0.07878629	     -9.70249772	     -0.25188772	     -0.03384380	     -0.00656178
      3.04749950	     17.21297237	     22.02268081	      0.06478074	      0.07867477	     -9.75014362	     -0.25167275	     -0.03415050	     -0.00644386
      3.06122967	     17.07888746	     22.01923212	      0.06431172	      0.07858599	     -9.77991427	     -0.25066700	     -0.03415945	     -0.00650604
      3.07495984	     16.94445685	     22.01579565	      0.06384200	      0.07849568	     -9.80032718	     -0.25005516	     -0.03429635	     -0.00664665
      3.09183075	     16.77896571	     22.01157078	      0.06326219	      0.07838339	     -9.81651949	     -0.25092988	     -0.03445290	     -0.00662706
      3.10870166	     16.61326054	     22.00733734	      0.06268118	      0.07827236	     -9.82617680	     -0.24862457	     -0.03441566	     -0.00657969
      3.12370774	     16.46579251	     22.00363553	      0.06216374	      0.07817280	     -9.82714240	     -0.25307305	     -0.03458710	     -0.00672493
      3.13871383	     16.31833475	     21.99919820	      0.06164433	      0.07806933	     -9.82554488	     -0.35703904	     -0.03461341	     -0.00708839
      3.15371991	     16.17091987	     21.99249758	      0.06112538	      0.07795902	     -9.82115134	     -0.54709690	     -0.03456485	     -0.00766204
      3.16956189	     16.01539552	     21.98179478	      0.06057755	      0.07783143	     -9.81274104	     -0.81528520	     -0.03461336	     -0.00845736
      3.18540386	     15.86002411	     21.96631210	      0.06002859	      0.07769082	     -9.80193016	     -1.15050698	     -0.03471560	     -0.00932950
      3.19826420	     15.73402696	     21.94949393	      0.05958188	      0.07756494	     -9.79266062	     -1.47250744	     -0.03475513	     -0.01032154
      3.21112454	     15.60815040	     21.92823625	      0.05913496	      0.07742341	     -9.78322050	     -1.84184940	     -0.03474255	     -0.01173910
      3.22688887	     15.45402252	     21.89515233	      0.05858712	      0.07722437	     -9.77052278	     -2.37001754	     -0.03478357	     -0.01349232
      3.24265320	     15.30010058	     21.85303576	      0.05803812	      0.07699849	     -9.75726647	     -2.98880631	     -0.03487438	     -0.01516505
      3.25841753	     15.14637712	     21.80042307	      0.05748877	      0.07674498	     -9.74559630	     -3.70199659	     -0.03480361	     -0.01707642
      3.27418186	     14.99283760	     21.73580272	      0.05694060	      0.07645751	     -9.73312548	     -4.51323066	     -0.03481507	     -0.01944686
      3.28663499	     14.87169880	     21.67521859	      0.05650586	      0.07620292	     -9.72235466	     -5.22767953	     -0.03498097	     -0.02146127
      3.29908812	     14.75067594	     21.60532635	      0.05607067	      0.07592239	     -9.71443189	     -6.00828615	     -0.03488617	     -0.02361448
      3.31637154	     14.58288279	     21.49134740	      0.05546759	      0.07548685	     -9.70183340	     -7.20247801	     -0.03496028	     -0.02685133
      3.33169099	     14.43434751	     21.37222228	      0.05493018	      0.07504980	     -9.69011398	     -8.36591561	     -0.03519792	     -0.03031875
      3.34701044	     14.28596538	     21.23451478	      0.05439118	      0.07455641	     -9.68158640	     -9.62924214	     -0.03518432	     -0.03408062
      3.36232988	     14.13771780	     21.07667169	      0.05385151	      0.07400668	     -9.67251606	    -10.99381189	     -0.03529305	     -0.03773019
      3.38243681	     13.94333983	     20.83645298	      0.05314082	      0.07319426	     -9.66153470	    -12.92685237	     -0.03546687	     -0.04317166
      3.39780536	     13.79489755	     20.62574649	      0.05259656	      0.07249586	     -9.65627354	    -14.50794421	     -0.03535100	     -0.04780091
      3.41317391	     13.64654295	     20.39008607	      0.05205319	      0.07172311	     -9.64946387	    -16.17387785	     -0.03543214	     -0.05279335
      3.42854246	     13.49831146	     20.12818481	      0.05150571	      0.07087344	     -9.64085025	    -17.92237120	     -0.03583587	     -0.05774100
      3.44431727	     13.34627884	     19.83078559	      0.05093816	      0.06992271	     -9.63432947	    -19.79506469	     -0.03616651	     -0.06289587
      3.46009207	     13.19433196	     19.50333278	      0.05036606	      0.06888258	     -9.63021622	    -21.73079366	     -0.03637710	     -0.06915868
      3.47352057	     13.06503393	     19.20016993	      0.04987614	      0.06791709	     -9.62711622	    -23.42958233	     -0.03659132	     -0.07454557
      3.48694907	     12.93576868	     18.87387794	      0.04938386	      0.06688232	     -9.62506022	    -25.17372635	     -0.03675521	     -0.07962325
      3.49735468	     12.83562633	     18.60479335	      0.04900013	      0.06603134	     -9.62258087	    -26.54843664	     -0.03701922	     -0.08403358
      3.50098149	     12.80072872	     18.50763141	      0.04886567	      0.06572356	     -9.62167996	    -27.03177966	     -0.03706894	     -0.08565599
      3.50460830	     12.76583525	     18.40871244	      0.04873236	      0.06541077	     -9.61989606	    -27.51726470	     -0.03627177	     -0.08670259
      3.51252187	     12.68977841	     18.18675183	      0.04845990	      0.06472289	     -9.59493272	    -28.57842278	     -0.03235363	     -0.08672707
      3.52043544	     12.61413251	     17.95643397	      0.04821808	      0.06404178	     -9.51163181	    -29.62570245	     -0.02915215	     -0.08538258
      3.53000870	     12.52391405	     17.66693333	      0.04794269	      0.06322814	     -9.32251460	    -30.84447725	     -0.02897468	     -0.08505883
